<svg width="210" height="50" viewBox="0 0 210 50" xmlns="http://www.w3.org/2000/svg" xmlns:xlink="http://www.w3.org/1999/xlink">
    <defs>
        <path id="3i5oc3dq1a" d="M0 0h8.558v9.87H0z"/>
        <path id="g959gfdgnc" d="M0 0h9.186v9.871H0z"/>
        <path id="9ntwzaivie" d="M0 49.618h210V0H0z"/>
    </defs>
    <g fill="none" fill-rule="evenodd">
        <path d="m71.304 44.597-3.024-.856c-.741-.172-1.083-.742-1.083-1.313 0-.799.684-1.597 2.167-1.597.856 0 1.826.342 2.625 1.026l.57-.969c-.74-.742-1.94-1.141-3.137-1.141-2.34-.058-3.538 1.54-3.538 2.91 0 .912.514 1.711 1.597 2.053l2.968.856c.855.228 1.312.856 1.312 1.484 0 .742-.685 1.483-2.225 1.483a5.25 5.25 0 0 1-3.423-1.312l-.571 1.027c.97.856 2.453 1.37 3.937 1.37 2.567 0 3.537-1.313 3.537-2.625 0-1.084-.685-2.11-1.712-2.396M74.749 40.945h3.367v8.615h1.255v-8.615h3.366v-1.142h-7.988zM86.047 45.738l1.712-4.508 1.711 4.508h-3.423zm2.282-5.934h-1.14l-3.995 9.756h1.369l1.084-2.853h4.222l1.085 2.853h1.369l-3.994-9.756zM95.632 44.939v-3.994h2.853c1.141 0 1.769 1.027 1.769 2.053 0 .97-.57 1.94-1.712 1.94h-2.91zm5.877-1.94c0-1.598-1.14-3.196-3.138-3.196h-3.994v9.757h1.255v-3.48h2.51l2.226 3.48h1.426l-2.339-3.708c1.427-.457 2.054-1.655 2.054-2.854zM106.744 49.56h1.255v-8.615h3.31v-1.142h-7.931v1.142h3.366zM117.813 49.618c2.682 0 4.165-2.112 4.165-4.85v-4.964h-1.255v4.964c0 1.882-.799 3.765-2.91 3.765-1.997 0-2.91-1.883-2.91-3.765v-4.964h-1.198v4.964c0 2.738 1.255 4.85 4.108 4.85M126.45 40.945h2.739c1.255 0 1.769.856 1.769 1.997 0 .912-.514 1.997-1.655 1.997h-2.853v-3.994zm0 5.135h2.91c1.711 0 2.853-1.483 2.853-3.138 0-1.483-1.142-3.139-2.967-3.139h-4.051v9.757h1.255v-3.48z" fill="#FFF"/>
        <g transform="translate(3.63 39.747)">
            <mask id="rfzkq0y27b" fill="#fff">
                <use xlink:href="#3i5oc3dq1a"/>
            </mask>
            <path d="M5.42 4.963v.913h2.055v1.22c-.682.985-1.631 1.69-2.853 1.69-1.94 0-3.424-1.712-3.424-3.823 0-1.882 1.256-3.822 3.31-3.822 1.197 0 2.168.513 2.796 1.654L8.33 2.11C7.59.855 6.162 0 4.564 0 1.884 0 0 2.225 0 4.906c0 2.739 1.826 4.965 4.564 4.965 1.17 0 2.174-.494 2.91-1.47v1.412h1.084v-4.85H5.42z" fill="#FFF" mask="url(#rfzkq0y27b)"/>
        </g>
        <path fill="#FFF" d="M15.923 39.804h-1.255v9.756h6.676v-1.083h-5.42zM38.29 48.476h-3.367v-3.309h3.48c.97 0 1.484.799 1.484 1.598 0 .856-.513 1.711-1.597 1.711zm-3.367-7.588h3.138c.97 0 1.427.798 1.427 1.597 0 .8-.513 1.655-1.484 1.655h-3.08v-3.252zm4.394 3.651c.97-.342 1.426-1.312 1.426-2.225 0-1.255-.799-2.51-2.225-2.51h-4.85v9.756h4.622c1.826 0 2.852-1.255 2.852-2.567 0-.97-.57-1.997-1.825-2.454zM45.25 45.738l1.713-4.508 1.711 4.508h-3.423zm1.142-5.934-3.994 9.756h1.369l1.084-2.853h4.165l1.142 2.853h1.37l-3.995-9.756h-1.14zM54.779 39.804h-1.198v9.756h6.676v-1.083h-5.478z"/>
        <g transform="translate(22.043 39.747)">
            <mask id="jwwgd2ivyd" fill="#fff">
                <use xlink:href="#g959gfdgnc"/>
            </mask>
            <path d="M4.564 8.73c-1.94 0-3.366-1.655-3.366-3.766 0-2.11 1.427-3.823 3.366-3.823 1.94 0 3.367 1.712 3.367 3.823 0 2.111-1.426 3.766-3.367 3.766m0-8.73C1.884 0 0 2.225 0 4.964 0 7.703 1.883 9.87 4.564 9.87c2.682 0 4.622-2.168 4.622-4.907S7.246 0 4.564 0" fill="#FFF" mask="url(#jwwgd2ivyd)"/>
        </g>
        <path fill="#FFF" d="M138.38 49.56h1.254v-4.335h4.337v-1.028h-4.337v-3.252h5.193v-1.14h-6.447zM148.421 45.11h4.565v-1.026h-4.565v-3.138h5.25v-1.142h-6.447v9.757h6.561v-1.085h-5.364zM164.44 40.945h3.366v8.616h1.256v-8.616h3.309v-1.141h-7.93z"/>
        <mask id="ryr1eq7nff" fill="#fff">
            <use xlink:href="#9ntwzaivie"/>
        </mask>
        <path fill="#FFF" mask="url(#ryr1eq7nff)" d="M174.596 49.56h1.256v-9.756h-1.256zM182.47 48.02l-3.195-8.216h-1.37l3.995 9.757h1.198l3.936-9.757h-1.311zM189.866 45.738l1.712-4.508 1.711 4.508h-3.423zm1.141-5.934-3.994 9.757h1.369l1.084-2.853h4.165l1.142 2.853h1.369l-3.994-9.757h-1.14zM199.395 48.476v-8.672h-1.199v9.757h6.619v-1.085zM161.316 44.597l-3.024-.856c-.741-.171-1.084-.742-1.084-1.313 0-.798.685-1.597 2.168-1.597.856 0 1.827.342 2.625 1.027l.57-.97c-.74-.742-1.94-1.141-3.138-1.141-2.339-.057-3.537 1.54-3.537 2.91 0 .913.513 1.712 1.598 2.054l2.966.856c.856.228 1.313.855 1.313 1.483 0 .742-.685 1.484-2.226 1.484a5.252 5.252 0 0 1-3.423-1.312l-.57 1.027c.97.856 2.453 1.369 3.937 1.369 2.567 0 3.537-1.313 3.537-2.625 0-1.084-.684-2.11-1.712-2.396M89.884 15.523 75.023 3.33l-.058-.047h-3.843v26.092h5.136V10.516l13.137 10.907h.854l13.26-10.99v18.942h5.178V3.283h-3.926zM50.923 25.523c-7.34 0-11.721-3.406-11.721-9.111 0-6.718 6.054-9.112 11.72-9.112 5.627 0 11.638 2.394 11.638 9.112 0 5.705-4.35 9.111-11.637 9.111M62.509 5.854c-2.956-1.952-7.071-3.027-11.586-3.027-8.27 0-17.105 3.569-17.105 13.585 0 10.015 8.836 13.584 17.105 13.584 4.515 0 8.63-1.075 11.586-3.026 3.583-2.366 5.477-6.017 5.477-10.558 0-4.542-1.894-8.193-5.477-10.558M30.27 22.643c-4.128 1.903-7.83 2.715-12.378 2.715-7.832-.041-12.508-3.37-12.508-8.905 0-5.601 4.691-8.945 12.55-8.945 4.276 0 8.412.912 12.295 2.714l.221.102 1.272-4.586-.158-.075c-4.168-1.96-8.474-2.836-13.962-2.836C9.482 2.827 0 6.385 0 16.412c0 10.016 9.092 13.584 17.602 13.584 5.475 0 9.662-.848 14.001-2.835l.161-.074-1.273-4.546-.22.102zM200.102 16.329H184.53v-8.2h15.24c2.383 0 4.929 1.022 4.929 3.893 0 2.495-1.934 4.307-4.597 4.307m.62-12.88h-21.328v25.925h5.136v-8.407h16.235c5.437 0 9.235-3.712 9.235-9.028 0-5.237-3.555-8.49-9.277-8.49M175.135 19.435V3.449h-5.176v15.406c0 4.953-5.645 6.71-10.479 6.71s-10.478-1.757-10.478-6.71V3.45h-5.177v15.986c0 7.786 8.087 10.56 15.655 10.56s15.655-2.774 15.655-10.56M129.032 15.726c1.347 0 2.734.169 4.08.547-.84.38-1.85.632-2.945.632-.715 0-1.515-.127-2.313-.337a31.97 31.97 0 0 1-1.894-.589h-.042a20.605 20.605 0 0 1 3.114-.253zm11.308 10.35-.093.015c-4.05.734-7.745 1.05-11.298.967-3.662-.054-6.47-.572-8.833-1.63-1.713-.795-3.247-1.844-2.88-4.129.243-1.491 1.248-2.684 2.988-3.545 1.67 1.238 3.8 2.18 6.509 2.881 1.202.277 2.42.424 3.519.424 1.068 0 2.125-.129 3.144-.383 1.678-.445 4.572-1.53 5.089-3.788.247-1.101.047-2.054-.593-2.831-2.023-2.457-7.912-2.49-9.663-2.442a26.673 26.673 0 0 0-6.739.996c-.74-.766-1.181-1.815-1.181-2.818 0-.852.36-1.66 1.01-2.268 2.12-1.738 5.5-2.524 7.858-2.964a20.952 20.952 0 0 1 3.557-.334c2.06 0 4.458.366 7.125 1.09l.11.03 1.11-4.176-.108-.03A29.96 29.96 0 0 0 132.86 0c-1.908 0-3.657.156-5.198.464-3.588.685-7.616 1.74-10.284 4.364-1.427 1.387-2.18 3.06-2.18 4.838 0 1.582.638 3.356 1.755 4.887-.564.322-1.193.746-1.924 1.295-1.843 1.549-2.988 3.904-2.988 6.147 0 1.287.36 2.51 1.07 3.638 1.745 2.753 5.596 4.554 11.442 5.355 1.534.224 3.337.338 5.36.338 4.337 0 8.31-.454 11.811-1.35l.126-.033-1.511-3.869z"/>
    </g>
</svg>
